<svg xmlns="http://www.w3.org/2000/svg" width="24" height="24"><path d="M56 56h144c13.25 0 24 10.75 24 24v112c0 13.25-10.75 24-24 24H56c-13.25 0-24-10.75-24-24V80c0-13.25 10.75-24 24-24Zm0 0" style="fill:none;stroke-width:16;stroke-linecap:round;stroke-linejoin:round;stroke:#000;stroke-opacity:1;stroke-miterlimit:4" transform="scale(.09375)"/><path d="M92 144h72c11.042 0 20 8.958 20 20s-8.958 20-20 20H92c-11.042 0-20-8.958-20-20s8.958-20 20-20ZM148 144v40M108 144v40M128 56V16" style="fill:none;stroke-width:16;stroke-linecap:round;stroke-linejoin:round;stroke:#000;stroke-opacity:1;stroke-miterlimit:4" transform="scale(.09375)"/><path d="M9 10.125a1.125 1.125 0 1 1-2.25 0 1.125 1.125 0 0 1 2.25 0ZM17.25 10.125a1.125 1.125 0 1 1-2.25 0 1.125 1.125 0 0 1 2.25 0Zm0 0" style="stroke:none;fill-rule:nonzero;fill:#000;fill-opacity:1"/></svg>