<svg xmlns="http://www.w3.org/2000/svg" width="24" height="24"><path d="m11.25.02-.496.05c-1.984.192-4.047.97-5.695 2.14-.813.583-1.82 1.532-2.43 2.302a12.076 12.076 0 0 0-2.567 6.242c-.058.527-.058 2.004 0 2.504.235 2.015.872 3.77 1.946 5.383.43.648.828 1.14 1.406 1.73 1.988 2.04 4.441 3.234 7.34 3.574.496.059 1.973.059 2.504 0 2.816-.312 5.336-1.53 7.308-3.543a11.178 11.178 0 0 0 1.668-2.12c.942-1.54 1.485-3.141 1.711-5.024.055-.465.055-2.028 0-2.504-.34-2.902-1.53-5.34-3.574-7.344-1.906-1.86-4.285-3-6.96-3.328-.403-.05-1.895-.094-2.161-.062Zm.027 9.726-.011 1.895-.266.043c-1.227.207-2.328 1.097-2.781 2.254-.094.226-.2.62-.246.886l-.02.13H4.156l.016-.15c.082-.808.164-1.226.363-1.82A7.575 7.575 0 0 1 7.754 8.93c.996-.606 2.375-1.047 3.351-1.07l.18-.005Zm4.59-1.629c.188 1.125.942 2.137 1.985 2.66.289.149.722.29 1.046.34l.239.04v3.804l-.227-.024c-2.57-.246-4.723-1.64-5.973-3.874-.468-.84-.824-1.997-.886-2.907l-.024-.3 1.899.003 1.898.012Zm0 0" style="stroke:none;fill-rule:nonzero;fill:#fff;fill-opacity:1"/></svg>